<svg width="21" height="30" viewBox="0 0 21 30" fill="none" xmlns="http://www.w3.org/2000/svg">
<path d="M8.52445 29.1332C7.03645 29.1332 5.70445 28.8332 4.52845 28.2332C3.35245 27.6332 2.44045 26.8172 1.79245 25.7852C1.16845 24.7532 0.856445 23.6132 0.856445 22.3652C0.856445 20.9492 1.25245 19.5812 2.04445 18.2612C2.86045 16.9172 3.96445 15.7772 5.35645 14.8412C6.74845 13.9052 8.30845 13.3172 10.0364 13.0772C9.19645 12.3332 8.54845 11.4932 8.09245 10.5572C7.66045 9.62119 7.44445 8.64919 7.44445 7.64119C7.44445 6.36919 7.76845 5.15719 8.41645 4.00519C9.08845 2.82919 10.0124 1.89319 11.1884 1.19719C12.3884 0.477188 13.7444 0.117188 15.2564 0.117188C16.7204 0.117188 17.8484 0.477188 18.6404 1.19719C19.4324 1.89319 19.8284 2.91319 19.8284 4.25719C19.8284 5.14519 19.6604 6.02119 19.3244 6.88519C19.0124 7.74919 18.6044 8.45719 18.1004 9.00919C17.6204 9.53719 17.1644 9.80119 16.7324 9.80119C16.1324 9.80119 15.5564 9.30919 15.0044 8.32519C17.1164 6.59719 18.1724 4.98919 18.1724 3.50119C18.1724 2.80519 17.9324 2.26519 17.4524 1.88119C16.9964 1.49719 16.3724 1.30519 15.5804 1.30519C14.5484 1.30519 13.6604 1.62919 12.9164 2.27719C12.1724 2.90119 11.6084 3.72919 11.2244 4.76119C10.8404 5.76919 10.6484 6.83719 10.6484 7.96519C10.6484 9.09319 10.8524 10.1732 11.2604 11.2052C11.6924 12.2132 12.3764 13.0772 13.3124 13.7972C11.6324 14.0612 10.1444 14.6492 8.84845 15.5612C7.57645 16.4492 6.58045 17.5172 5.86045 18.7652C5.16445 19.9892 4.81645 21.2132 4.81645 22.4372C4.81645 23.2532 4.97245 24.0452 5.28445 24.8132C5.62045 25.5812 6.13645 26.2172 6.83245 26.7212C7.52845 27.2492 8.41645 27.5132 9.49645 27.5132C10.7684 27.5132 12.0404 27.1532 13.3124 26.4332C14.6084 25.7132 15.7964 24.7532 16.8764 23.5532C17.9564 22.3532 18.8204 21.0692 19.4684 19.7012L20.4404 20.3132C19.0244 22.9772 17.2964 25.1132 15.2564 26.7212C13.2164 28.3292 10.9724 29.1332 8.52445 29.1332Z" fill="#BB9C66"/>
</svg>
