<svg width="121" height="30" viewBox="0 0 121 30" fill="none" xmlns="http://www.w3.org/2000/svg">
<path d="M8.52445 29.1301C7.03645 29.1301 5.70445 28.8301 4.52845 28.2301C3.35245 27.6301 2.44045 26.8141 1.79245 25.7821C1.16845 24.7501 0.856445 23.6101 0.856445 22.3621C0.856445 20.9461 1.25245 19.5781 2.04445 18.2581C2.86045 16.9141 3.96445 15.7741 5.35645 14.8381C6.74845 13.9021 8.30845 13.3141 10.0364 13.0741C9.19645 12.3301 8.54845 11.4901 8.09245 10.5541C7.66045 9.61812 7.44445 8.64613 7.44445 7.63812C7.44445 6.36613 7.76845 5.15413 8.41645 4.00213C9.08845 2.82613 10.0124 1.89013 11.1884 1.19413C12.3884 0.474125 13.7444 0.114125 15.2564 0.114125C16.7204 0.114125 17.8484 0.474125 18.6404 1.19413C19.4324 1.89013 19.8284 2.91012 19.8284 4.25412C19.8284 5.14212 19.6604 6.01813 19.3244 6.88213C19.0124 7.74612 18.6044 8.45412 18.1004 9.00612C17.6204 9.53412 17.1644 9.79813 16.7324 9.79813C16.1324 9.79813 15.5564 9.30613 15.0044 8.32213C17.1164 6.59413 18.1724 4.98613 18.1724 3.49813C18.1724 2.80212 17.9324 2.26212 17.4524 1.87813C16.9964 1.49412 16.3724 1.30212 15.5804 1.30212C14.5484 1.30212 13.6604 1.62612 12.9164 2.27412C12.1724 2.89813 11.6084 3.72613 11.2244 4.75812C10.8404 5.76612 10.6484 6.83412 10.6484 7.96212C10.6484 9.09012 10.8524 10.1701 11.2604 11.2021C11.6924 12.2101 12.3764 13.0741 13.3124 13.7941C11.6324 14.0581 10.1444 14.6461 8.84845 15.5581C7.57645 16.4461 6.58045 17.5141 5.86045 18.7621C5.16445 19.9861 4.81645 21.2101 4.81645 22.4341C4.81645 23.2501 4.97245 24.0421 5.28445 24.8101C5.62045 25.5781 6.13645 26.2141 6.83245 26.7181C7.52845 27.2461 8.41645 27.5101 9.49645 27.5101C10.7684 27.5101 12.0404 27.1501 13.3124 26.4301C14.6084 25.7101 15.7964 24.7501 16.8764 23.5501C17.9564 22.3501 18.8204 21.0661 19.4684 19.6981L20.4404 20.3101C19.0244 22.9741 17.2964 25.1101 15.2564 26.7181C13.2164 28.3261 10.9724 29.1301 8.52445 29.1301Z" fill="#BB9C66"/>
<path d="M20.6289 28.1221C20.4369 28.1221 20.2809 28.0381 20.1609 27.8701C20.0409 27.7261 19.9809 27.5701 19.9809 27.4021C19.9809 26.9461 20.4849 26.0581 21.4929 24.7381C22.5249 23.4181 23.8089 21.9421 25.3449 20.3101C25.1289 18.9421 24.9249 17.9941 24.7329 17.4661C24.5409 16.9381 24.2049 16.6741 23.7249 16.6741C23.1729 16.6741 22.6689 16.9501 22.2129 17.5021C21.7809 18.0541 21.2169 18.9421 20.5209 20.1661L19.5489 21.8221L18.9369 20.8141C19.1049 20.5501 19.3929 19.9741 19.8009 19.0861C20.2089 18.1501 20.5809 17.4061 20.9169 16.8541C21.2769 16.2781 21.7329 15.7981 22.2849 15.4141C22.8609 15.0061 23.5569 14.8021 24.3729 14.8021C25.2849 14.8021 25.9929 15.0661 26.4969 15.5941C27.0009 16.0981 27.3969 16.8541 27.6849 17.8621C28.8369 16.7101 29.8329 15.7861 30.6729 15.0901C31.5369 14.3941 32.1369 14.0461 32.4729 14.0461C32.6649 14.0461 32.8809 14.1301 33.1209 14.2981C33.3609 14.4661 33.5409 14.6941 33.6609 14.9821C33.2049 14.9821 32.4489 15.4261 31.3929 16.3141C30.3609 17.2021 29.2209 18.3301 27.9729 19.6981C28.0689 20.3461 28.1169 20.6941 28.1169 20.7421C28.2369 22.0381 28.4289 23.1061 28.6929 23.9461C28.9569 24.7861 29.4009 25.2061 30.0249 25.2061C30.7689 25.2061 31.6449 24.6061 32.6529 23.4061C33.6849 22.2061 34.4769 21.0181 35.0289 19.8421L35.6049 20.3821C34.9329 22.1341 33.9609 23.6701 32.6889 24.9901C31.4409 26.3101 30.1809 26.9701 28.9089 26.9701C27.9009 26.9701 27.1569 26.5741 26.6769 25.7821C26.1969 24.9661 25.8489 23.8861 25.6329 22.5421C24.1689 24.1981 22.7049 25.9501 21.2409 27.7981C21.0489 28.0141 20.8449 28.1221 20.6289 28.1221Z" fill="#BB9C66"/>
<path d="M38.1856 28.0141C36.8896 28.0141 35.8456 27.6061 35.0536 26.7901C34.2856 25.9981 33.9016 24.8221 33.9016 23.2621C33.9016 21.7261 34.2856 20.2261 35.0536 18.7621C35.8456 17.2981 36.8656 16.1101 38.1136 15.1981C39.3616 14.2861 40.6216 13.8301 41.8936 13.8301C42.8536 13.8301 43.5616 14.0701 44.0176 14.5501C44.4976 15.0301 44.7376 15.6301 44.7376 16.3501C44.7376 17.0701 44.5576 17.7421 44.1976 18.3661C43.8616 18.9661 43.4416 19.2661 42.9376 19.2661C42.4816 19.2661 42.1096 19.0381 41.8216 18.5821C42.1096 18.3901 42.3736 18.0541 42.6136 17.5741C42.8536 17.0941 42.9736 16.5301 42.9736 15.8821C42.9736 15.4741 42.7456 15.2701 42.2896 15.2701C41.5216 15.2701 40.6936 15.7261 39.8056 16.6381C38.9176 17.5501 38.1736 18.6541 37.5736 19.9501C36.9736 21.2461 36.6736 22.4221 36.6736 23.4781C36.6736 24.2461 36.8656 24.8941 37.2496 25.4221C37.6336 25.9261 38.2936 26.1781 39.2296 26.1781C40.1416 26.1781 41.0896 25.9141 42.0736 25.3861C43.0816 24.8581 44.0176 24.1141 44.8816 23.1541C45.7456 22.1701 46.4296 21.0421 46.9336 19.7701L47.6536 20.4181C47.0776 21.8581 46.2736 23.1541 45.2416 24.3061C44.2336 25.4581 43.1056 26.3581 41.8576 27.0061C40.6096 27.6781 39.3856 28.0141 38.1856 28.0141Z" fill="#BB9C66"/>
<path d="M49.2019 27.0781C48.1459 27.0781 47.3779 26.7301 46.8979 26.0341C46.4179 25.3381 46.1779 24.4141 46.1779 23.2621C46.1779 21.0541 46.9219 18.1021 48.4099 14.4061C49.9219 10.7101 51.6139 7.39813 53.4859 4.47012C55.3579 1.54212 56.7379 0.078125 57.6259 0.078125C58.0339 0.078125 58.3819 0.402125 58.6699 1.05013C58.9579 1.67412 59.1139 2.31012 59.1379 2.95812C59.1379 4.06212 58.6939 5.68213 57.8059 7.81813C56.9179 9.93013 55.7179 12.0781 54.2059 14.2621C52.7179 16.4461 51.1219 18.2101 49.4179 19.5541C49.1539 21.0421 49.0219 22.1701 49.0219 22.9381C49.0219 23.7781 49.1539 24.4021 49.4179 24.8101C49.7059 25.2181 50.0899 25.4221 50.5699 25.4221C51.4099 25.4221 52.2979 24.8701 53.2339 23.7661C54.1939 22.6381 55.0459 21.2821 55.7899 19.6981L56.6539 20.1661C55.5979 22.3501 54.4339 24.0541 53.1619 25.2781C51.8899 26.4781 50.5699 27.0781 49.2019 27.0781ZM50.0659 17.3221C51.3619 15.9301 52.5739 14.2981 53.7019 12.4261C54.8539 10.5541 55.7659 8.77813 56.4379 7.09812C57.1339 5.41812 57.4819 4.17013 57.4819 3.35413C57.1699 3.35413 56.5339 4.08613 55.5739 5.55013C54.6379 7.01412 53.6419 8.83812 52.5859 11.0221C51.5539 13.1821 50.7139 15.2821 50.0659 17.3221Z" fill="#BB9C66"/>
<path d="M57.6661 27.0781C56.8741 27.0781 56.2141 26.7061 55.6861 25.9621C55.1581 25.2181 54.8941 24.3421 54.8941 23.3341C54.8941 22.4701 55.0861 21.3901 55.4701 20.0941C55.8541 18.7981 56.2981 17.6701 56.8021 16.7101C57.3301 15.7501 57.7861 15.2701 58.1701 15.2701C58.3381 15.2701 58.5901 15.3661 58.9261 15.5581C59.2861 15.7261 59.5981 15.9421 59.8621 16.2061C59.3581 16.9501 58.8301 18.0181 58.2781 19.4101C57.7501 20.8021 57.4861 22.0021 57.4861 23.0101C57.4861 23.4661 57.5461 23.9461 57.6661 24.4501C57.8101 24.9301 58.1101 25.1701 58.5661 25.1701C59.4541 25.1701 60.5101 24.1861 61.7341 22.2181C62.9821 20.2261 64.0501 18.2101 64.9381 16.1701C66.3781 16.4101 67.0981 16.8181 67.0981 17.3941C67.0981 17.4421 66.9541 17.7901 66.6661 18.4381C66.1621 19.6141 65.7301 20.7061 65.3701 21.7141C65.0101 22.7221 64.8301 23.5981 64.8301 24.3421C64.8301 25.1821 65.1541 25.6021 65.8021 25.6021C66.3061 25.6021 66.9061 25.3741 67.6021 24.9181C68.3221 24.4381 69.0541 23.7661 69.7981 22.9021C70.5421 22.0141 71.1901 20.9941 71.7421 19.8421L72.2821 20.2741C71.7541 21.5701 71.0701 22.7341 70.2301 23.7661C69.3901 24.7981 68.4781 25.6021 67.4941 26.1781C66.5341 26.7781 65.6101 27.0781 64.7221 27.0781C63.6661 27.0781 62.9821 26.7181 62.6701 25.9981C62.3821 25.2541 62.2381 24.2701 62.2381 23.0461C61.4221 24.2941 60.6541 25.2781 59.9341 25.9981C59.2141 26.7181 58.4581 27.0781 57.6661 27.0781Z" fill="#BB9C66"/>
<path d="M75.0328 27.8341C73.3528 27.8341 72.1048 27.3421 71.2888 26.3581C70.4968 25.3981 70.1008 24.2461 70.1008 22.9021C70.1008 21.9661 70.2688 21.3181 70.6048 20.9581C70.9408 20.5741 71.3128 20.2861 71.7208 20.0941C72.1528 19.9021 72.4048 19.7701 72.4768 19.6981C74.0128 18.1141 75.1768 16.4701 75.9688 14.7661V14.4061C75.9688 13.5181 76.1128 12.8581 76.4008 12.4261C76.7128 11.9941 77.1088 11.7781 77.5888 11.7781C78.1168 11.7781 78.4048 12.0181 78.4528 12.4981C78.4528 12.6181 78.4168 12.7981 78.3448 13.0381C78.2968 13.2781 78.2728 13.5301 78.2728 13.7941C78.2728 14.2501 78.3448 14.7301 78.4888 15.2341C78.6328 15.7381 78.8608 16.4221 79.1728 17.2861C79.5568 18.3421 79.8448 19.2541 80.0368 20.0221C80.2528 20.7901 80.3608 21.5701 80.3608 22.3621C80.3608 22.7701 80.3128 23.2621 80.2168 23.8381C81.8488 23.4301 83.2648 22.0741 84.4648 19.7701L84.8968 20.0941C84.4168 21.4621 83.7448 22.5661 82.8808 23.4061C82.0408 24.2461 81.0448 24.7501 79.8928 24.9181C79.5088 25.8781 78.8848 26.5981 78.0208 27.0781C77.1568 27.5821 76.1608 27.8341 75.0328 27.8341ZM77.3728 23.7661C77.4448 23.5501 77.4808 23.1781 77.4808 22.6501C77.4568 21.8821 77.3728 21.1261 77.2288 20.3821C77.0848 19.6381 76.8688 18.6781 76.5808 17.5021L76.2568 16.2061C75.0808 18.2461 74.0368 19.7461 73.1248 20.7061C73.5328 21.4021 74.1088 22.0381 74.8528 22.6141C75.5968 23.1661 76.4368 23.5501 77.3728 23.7661ZM74.7808 26.2501C75.2608 26.2501 75.7048 26.1301 76.1128 25.8901C76.5448 25.6501 76.8688 25.3021 77.0848 24.8461C76.1488 24.6541 75.2848 24.2941 74.4928 23.7661C73.7008 23.2141 73.0648 22.6261 72.5848 22.0021C72.2488 22.0741 72.0808 22.3981 72.0808 22.9741C72.0808 23.8381 72.3208 24.6061 72.8008 25.2781C73.2808 25.9261 73.9408 26.2501 74.7808 26.2501Z" fill="#BB9C66"/>
<path d="M90.5699 10.8421C90.0659 10.8421 89.6338 10.7221 89.2738 10.4821C88.9378 10.2421 88.7699 9.89413 88.7699 9.43813C88.7699 8.88613 89.0699 8.40613 89.6699 7.99813C90.2939 7.56613 90.9538 7.35013 91.6498 7.35013C92.6818 7.35013 93.1979 7.79413 93.1979 8.68213C93.1979 9.18613 92.9219 9.67813 92.3699 10.1581C91.8179 10.6141 91.2179 10.8421 90.5699 10.8421ZM86.3219 27.0781C85.3139 27.0781 84.5338 26.7781 83.9818 26.1781C83.4298 25.5781 83.1539 24.8101 83.1539 23.8741C83.1539 22.9141 83.4179 21.6181 83.9459 19.9861C84.4979 18.3301 85.1818 16.8781 85.9978 15.6301C86.8378 14.3821 87.6779 13.7581 88.5179 13.7581C88.8299 13.7581 89.0818 13.8541 89.2738 14.0461C89.4898 14.2141 89.5979 14.4661 89.5979 14.8021C89.5979 15.0181 89.5019 15.3181 89.3099 15.7021C89.1179 16.0621 88.8059 16.5901 88.3739 17.2861C87.6059 18.5581 86.9938 19.6861 86.5378 20.6701C86.1058 21.6301 85.8899 22.5421 85.8899 23.4061C85.8899 24.1501 86.0219 24.6541 86.2859 24.9181C86.5499 25.1821 86.9578 25.3141 87.5098 25.3141C89.4058 25.3141 91.2898 23.4781 93.1618 19.8061L93.7019 20.3821C92.8619 22.4941 91.7938 24.1381 90.4978 25.3141C89.2018 26.4901 87.8099 27.0781 86.3219 27.0781Z" fill="#BB9C66"/>
<path d="M94.8949 27.4021C94.0309 27.4021 93.4189 27.0181 93.0589 26.2501C92.6989 25.5061 92.5189 24.4501 92.5189 23.0821C92.5189 22.4101 92.5669 20.9821 92.6629 18.7981C92.6869 18.0301 92.7709 17.5261 92.9149 17.2861C93.0589 17.0461 93.4309 16.9261 94.0309 16.9261C94.5829 16.9261 94.9189 17.0341 95.0389 17.2501C95.1589 17.4421 95.2189 17.9101 95.2189 18.6541C95.2189 19.1101 95.1949 19.8661 95.1469 20.9221C95.0749 21.7141 95.0389 22.5181 95.0389 23.3341C95.0389 24.1501 95.0749 24.7141 95.1469 25.0261C95.2429 25.3381 95.4229 25.4941 95.6869 25.4941C96.4549 25.4941 97.3789 24.7381 98.4589 23.2261C99.5629 21.6901 100.523 19.9981 101.339 18.1501C101.387 16.6141 101.567 15.5461 101.879 14.9461C102.191 14.3461 102.635 14.0461 103.211 14.0461C103.739 14.0461 104.123 14.2141 104.363 14.5501C104.627 14.8861 104.759 15.2461 104.759 15.6301C104.759 15.8701 104.699 16.0981 104.579 16.3141C104.483 16.5301 104.423 16.6741 104.399 16.7461C104.159 17.1541 103.967 17.6101 103.823 18.1141C103.679 18.5941 103.607 19.2541 103.607 20.0941C103.607 21.7741 104.123 22.6141 105.155 22.6141C105.635 22.6141 106.103 22.4101 106.559 22.0021C107.015 21.5941 107.483 20.9101 107.963 19.9501L108.359 20.2741C107.831 21.5221 107.231 22.4341 106.559 23.0101C105.911 23.5621 105.239 23.8381 104.543 23.8381C103.799 23.8381 103.163 23.5381 102.635 22.9381C102.131 22.3381 101.747 21.5221 101.483 20.4901C100.427 22.4581 99.3229 24.1021 98.1709 25.4221C97.0429 26.7421 95.9509 27.4021 94.8949 27.4021Z" fill="#BB9C66"/>
<path d="M111.173 27.5821C109.661 27.5821 108.485 27.1741 107.645 26.3581C106.805 25.5421 106.385 24.4981 106.385 23.2261C106.385 21.8341 106.853 20.3341 107.789 18.7261C108.725 17.0941 109.925 15.7381 111.389 14.6581C112.853 13.5541 114.293 13.0021 115.709 13.0021C116.453 13.0021 117.077 13.1941 117.581 13.5781C118.085 13.9381 118.337 14.5501 118.337 15.4141C118.337 16.5661 117.893 17.6581 117.005 18.6901C116.117 19.6981 114.965 20.5261 113.549 21.1741C112.157 21.8221 110.729 22.2301 109.265 22.3981C109.217 22.6381 109.193 22.9141 109.193 23.2261C109.193 23.8501 109.361 24.4741 109.697 25.0981C110.057 25.7221 110.813 26.0341 111.965 26.0341C113.429 26.0341 114.917 25.4461 116.429 24.2701C117.965 23.0701 119.201 21.5821 120.137 19.8061L120.857 20.3821C119.897 22.5421 118.517 24.2821 116.717 25.6021C114.941 26.9221 113.093 27.5821 111.173 27.5821ZM109.661 21.0661C110.525 20.9701 111.485 20.6221 112.541 20.0221C113.621 19.4221 114.533 18.6901 115.277 17.8261C116.021 16.9381 116.393 16.0741 116.393 15.2341C116.393 14.9701 116.345 14.7901 116.249 14.6941C116.153 14.5981 115.997 14.5501 115.781 14.5501C115.085 14.5501 114.317 14.8861 113.477 15.5581C112.661 16.2061 111.905 17.0341 111.209 18.0421C110.513 19.0501 109.997 20.0581 109.661 21.0661Z" fill="#BB9C66"/>
</svg>
